<!DOCTYPE svg PUBLIC "-//W3C//DTD SVG 1.1//EN" "http://www.w3.org/Graphics/SVG/1.1/DTD/svg11.dtd">
<!-- Uploaded to: SVG Repo, www.svgrepo.com, Transformed by: SVG Repo Mixer Tools -->
<svg height="158px" width="158px" version="1.1" id="Capa_1" xmlns="http://www.w3.org/2000/svg" xmlns:xlink="http://www.w3.org/1999/xlink" viewBox="-24.88 -24.88 113.56 113.56" xml:space="preserve" fill="#" stroke="#" stroke-width="0.00063805" transform="rotate(0)">
<g id="SVGRepo_bgCarrier" stroke-width="0">
<path transform="translate(-24.88, -24.88), scale(7.0975)" fill="#9e31d8" d="M9.166.33a2.25 2.25 0 00-2.332 0l-5.25 3.182A2.25 2.25 0 00.5 5.436v5.128a2.25 2.25 0 001.084 1.924l5.25 3.182a2.25 2.25 0 002.332 0l5.25-3.182a2.25 2.25 0 001.084-1.924V5.436a2.25 2.25 0 00-1.084-1.924L9.166.33z" strokewidth="0"/>
</g>
<g id="SVGRepo_tracerCarrier" stroke-linecap="round" stroke-linejoin="round" stroke="#CCCCCC" stroke-width="0.25522"/>
<g id="SVGRepo_iconCarrier"> <g> <g> <circle style="fill:#ffffff;" cx="31.686" cy="9.089" r="9.089"/> <path style="fill:#ffffff;" d="M58.496,48.961c-4.383-10.289-19.918-26.166-20.22-26.362c-1.563-1.687-3.848-2.515-6.156-2.549 v-0.007c-0.001,0-0.434,0-0.435,0v0.007c-2.308,0.035-4.594,0.863-6.156,2.549C25.227,22.795,9.691,38.672,5.308,48.961 c-1.071,2.516-0.068,4.885,1.611,6.282c-0.416,1.38-0.426,2.921,0.041,4.408c0.803,2.562,2.881,4.154,5.418,4.154 c4.854,0,34.166,0,39.047,0c2.537,0,4.614-1.593,5.417-4.154c0.468-1.487,0.458-3.028,0.041-4.408 C58.565,53.846,59.568,51.477,58.496,48.961z M17.23,47.34c1.864-3.046,3.989-5.831,6.299-8.511c0,2.764,0.08,9.679,0.219,10.307 C23.279,49.015,18.925,47.918,17.23,47.34z M40.058,49.136c0.138-0.628,0.218-7.543,0.218-10.307 c2.312,2.68,4.437,5.465,6.3,8.511C44.882,47.918,40.528,49.015,40.058,49.136z"/> </g> </g> </g>
</svg>